<svg id="Layer_1" data-name="Layer 1" xmlns="http://www.w3.org/2000/svg" viewBox="0 0 188.127 111.849"><defs><style>.cls-1{fill:#1d1b1c;}.cls-2{fill:#eb2428;}</style></defs><title>logo_3</title><path class="cls-1" d="M99.562,44.076h-43.5S8.56,45.4,5.937,98.826c0,0-.25,52.25,55.5,57,0,0,22.75,1.875,38.125-14.25V87.451H74.687L51.062,111.826H74.187v17.75s-14.418,3.408-21.438,0c0,0-18.437-5-21.437-27.5,0,0-2.418-31.467,24.625-33.375H75.312Z" transform="translate(-5.937 -44.076)"/><path class="cls-2" d="M184.353,44.076h-51.5s-28.76,5.492-28.667,35.5c0,0,1.333,29.167,27.5,32.333h30s24.79,3.908,14.957,33.408c0,0,9.665-1.008,10.667-19.167,0,0,8.083-36.292-20.79-38.408h-31s-6.918-2.883-7-8.833c0,0-1-8.5,6.833-10.5h28.5Z" transform="translate(-5.937 -44.076)"/><path class="cls-2" d="M113.137,155.794l51.488.13s29.481-1.19,29.439-34.862c0,0-.227-33.718-27.544-33.319l-29.187.8S109.567,82.6,120.045,53.324c0,0-7.23.886-13.152,17.743,0,0-3.908,35.5,25.031,40.462l30.993.68s6.727,2.462,6.8,8.985c0,0,.36,8.665-7.062,10.348l-28.493-.625Z" transform="translate(-5.937 -44.076)"/></svg>