<svg id="Layer_1" data-name="Layer 1" xmlns="http://www.w3.org/2000/svg" viewBox="0 0 512 98.886"><defs><style>.cls-1{fill-rule:evenodd;}</style></defs><title>Artboard 1</title><path class="cls-1" d="M267.809,12.571c.5,2.346.377,21.5-.093,24.02-3,.033-9.16.629-11.217-.545.069-2.115,1.12-.585,1.434-2.955-4.789-4.211-9.406,2.8-9.491,7.969-.134,8.2,4.618,7.65,11.7,7.65l.018,18.693c3.233.258,25.523.433,27.584-.051,6.2-1.454,5.259-18.4-3.881-15.063-.487,3.337.024.85.786,2.423,1.257,2.6-3.457,1.557-8.4,1.748l-.083-7.773,8.7-.024.164-27.094,7.577.011-.005,45.892,16.656-.008L309.248.333l-16.873.04-.123,8-7.5.037L284.879.27c-6.02.065-11.969.019-17.9.019-6.3,0-12-1.464-14.607,3.128-2.818,4.959-.947,10.2,2.837,12.411,4.27,2.494,1.936-2.4,3.974-3.157C259.7,12.482,266.607,12.6,267.809,12.571Z"/><path class="cls-1" d="M392.494,11.15c2.459-.8,5.64-.38,8.27-.327l.133,24.16c-2.7-.005-5.516.089-8.177.04-4.832-.088-1.926-1.457-1.664-4.489-4.846-.894-7.031,3.953-6.854,9.076.236,6.775,3.274,7.026,9.324,7.677l.011,14.316,29.576-.037-.057,5.906,16.612-.009L439.643.182,422.767.2l.374,49.046-13.28,0-.146-2.982,8.865-.168.08-45.912C414.434.174,390.8-.228,388.785.467c-4.606,1.591-5.569,11.811,1.513,14.064C394.55,15.884,392.44,13.254,392.494,11.15Z"/><path class="cls-1" d="M318.248,11.767l3.745-.146.2,33.186c-.21,1.992-1.677,2.889-3.491,1.614-1.739-1.222.392-1.239.04-3.846-7.606-1.714-9.211,12.7-1.437,16.433,3.573,1.715,21.784.9,27.148.942l.223,7.449,16.816.071L361.464.22,344.581.188l-.054,45.069-5.452.077L339.087.2C334.831.169,330.6.187,326.372.187c-3.644,0-9.551-.934-11.774,1.371-4.455,4.619-1.545,12.565,2.107,13.16C319.869,15.234,318,13.335,318.248,11.767Z"/><path class="cls-1" d="M480.053,16.923l.276-3.422c2.371-.706,5.368-.458,7.785-.223l-.045,23.252c-3.426.228-14.9.563-16.988-.411.021-2.323,1.024-.676,1.424-2.884-4.393-4.52-9.59,2.33-9.5,8.238.121,8.317,5.578,7.189,12.853,7.241l.271,18.81c8.863.472,21.459.446,30.293.07,9.431-.4,5.9-19.564-3.1-15.164-.553,3.537,1.991.449.758,3.567-1.856.9-8.663.685-10.963.222v-7.4l11.86-.17L504.945.263c-3.208-.2-25.152-.4-26.813.23C471.808,2.9,472.618,16.993,480.053,16.923Z"/><polygon class="cls-1" points="442.483 67.562 460.06 67.677 460.117 0.212 442.451 0.202 442.483 67.562"/><polygon class="cls-1" points="364.348 67.562 381.06 67.684 381.162 0.214 364.334 0.196 364.348 67.562"/><path class="cls-1" d="M57.932,56.694c4.455.179,19.826.955,22.614-1.375,5.043-4.215,2.488-11.33-1.013-12.221-2.691-.684-1.557,1.357-1.722,2.867l-2.469.048-.1-21.792c1.4,1.313,7.869,16.516,9.49,19.821,1.321,2.693.93,2.891-.154,5.479-.771,1.842-1.387,3.431-2.2,5.3-6.589,15.146-4.945,12.943,13.344,12.943,22.034,0,20.591,2.736,11.764-17.943-3.092-7.243-2.983-4.332,1.951-16.637,4.355-10.862,8.632-22.1,13.188-32.8L103.554.138,95.308,20.461c-1.18-1.352-1.623-3.276-2.257-4.9L86.932.308,58.349.318Z"/><path class="cls-1" d="M184.914,67.624c3.721.018,21.551.425,23.494-.391,6.281-2.636,4.107-16.154-2.3-13.581-.224,2.7.782.884.25,3.529l-4.265.18-.007-43.726,10.748-.082.135,53.778,17.6-.042L230.592.153H184.937Z"/><path class="cls-1" d="M41.744,80.192c-.769-2.386-1.36-.086-1.2-3.107,2.106-.827,5.767-.459,8.154-.237l.069,6.989c-4.157.513-10.88.119-15.243.119-15.083,0-9.625.7-10.291-4.5-5.523-.832-9.414,5.127-9.771,10.33-.534,7.821,4.269,8.991,11.177,8.968,13.308-.043,27.019.352,40.268-.038l.014-30.944-9.515-.012L55.359.395,37.847.312c-.577,4.558-.257,42.128-.275,50.06-.056,24.753-.527,12.847-5.192,19.474C27.783,76.375,35.832,84.869,41.744,80.192Z"/><path class="cls-1" d="M129.964,16.8c.932-1.864-.863-3.527,2.216-3.746a52.113,52.113,0,0,1,5.785.141l.138,23.3c-3.362.246-14.733.453-17.014-.291-.02-3.462,1.677-.086,1.13-3.489-5.3-3.885-9.528,4.17-9.222,9.228.485,8.019,5.794,6.574,12.9,6.775l.218,18.814c9.569.13,21.154.534,30.386.025,9.327-.514,5.872-19.562-3.15-15.236-.673,4.183.949-.531.958,3.866l-11.049.236-.175-7.774,11.671-.011L154.923.382c-2.116-.432-25.234-.478-26.73.04C120.971,2.922,123.821,18.025,129.964,16.8Z"/><path class="cls-1" d="M9.334,11.62l6.569-.192-.014,42.613-6.922-.093c-.488-2.028-.316-1.115.322-2.579.072-.163,1.3-1.355.292-2.357-1.568-1.092-4.154-.183-5.739.667a6.515,6.515,0,0,0-3.5,4.459C-.811,58.363,1.094,63.8,3.7,65.262c2.43,1.359,26.206.8,30.816.662L34.848.075,7.8,0C-.985,0-.449,15.13,7.572,16.417,12.322,17.179,9.758,14.1,9.334,11.62Z"/><polygon class="cls-1" points="165.208 67.651 181.908 67.637 181.996 0.174 165.231 0.153 165.208 67.651"/></svg>